<svg width="21" height="20" viewBox="0 0 21 20" fill="none"
    xmlns="http://www.w3.org/2000/svg">
    <path d="M10.5088 5.06641C11.9841 5.06644 13.2055 6.1951 13.3525 7.63281L13.3672 7.9248C13.3589 9.47756 12.1524 10.7189 10.6211 10.7744H10.4619C8.84191 10.7184 7.65042 9.46286 7.65039 7.9248C7.65039 6.35095 8.93493 5.06641 10.5088 5.06641ZM10.5 5.30762C9.05622 5.30783 7.89181 6.48313 7.8916 7.91602C7.8916 9.32545 8.99527 10.4727 10.3984 10.5244L10.4893 10.5273L10.5137 10.5186C10.516 10.5187 10.5189 10.5194 10.5215 10.5195C10.5334 10.5202 10.5461 10.5212 10.5586 10.5225L10.5967 10.5264L10.6348 10.5244C11.9318 10.4567 12.9625 9.45331 13.0947 8.17871L13.1084 7.91992V7.91602C13.1082 6.483 11.944 5.30762 10.5 5.30762Z" stroke="#1B6013"/>
    <path d="M10.5 18.9586C8.25836 18.9586 6.11669 18.1253 4.45836 16.6086C4.30836 16.4753 4.24169 16.2753 4.25836 16.0836C4.36669 15.0919 4.98336 14.1669 6.00836 13.4836C8.49169 11.8336 12.5167 11.8336 14.9917 13.4836C16.0167 14.1753 16.6334 15.0919 16.7417 16.0836C16.7667 16.2836 16.6917 16.4753 16.5417 16.6086C14.8834 18.1253 12.7417 18.9586 10.5 18.9586ZM5.56669 15.9169C6.95003 17.0753 8.69169 17.7086 10.5 17.7086C12.3084 17.7086 14.05 17.0753 15.4334 15.9169C15.2834 15.4086 14.8834 14.9169 14.2917 14.5169C12.2417 13.1503 8.76669 13.1503 6.70003 14.5169C6.10836 14.9169 5.71669 15.4086 5.56669 15.9169Z" fill="#1B6013"/>
    <path d="M10.4993 18.9587C5.55768 18.9587 1.54102 14.942 1.54102 10.0003C1.54102 5.05866 5.55768 1.04199 10.4993 1.04199C15.441 1.04199 19.4577 5.05866 19.4577 10.0003C19.4577 14.942 15.441 18.9587 10.4993 18.9587ZM10.4993 2.29199C6.24935 2.29199 2.79102 5.75033 2.79102 10.0003C2.79102 14.2503 6.24935 17.7087 10.4993 17.7087C14.7493 17.7087 18.2077 14.2503 18.2077 10.0003C18.2077 5.75033 14.7493 2.29199 10.4993 2.29199Z" fill="#1B6013"/>
</svg>
