<svg width="21" height="20" viewBox="0 0 21 20" fill="none"
    xmlns="http://www.w3.org/2000/svg">
    <path d="M15.6577 14.7917H6.78268C5.95768 14.7917 5.16601 14.4418 4.60768 13.8334C4.04934 13.2251 3.76602 12.4084 3.83268 11.5834L4.52435 3.28342C4.54935 3.02508 4.45768 2.77509 4.28268 2.58342C4.10768 2.39175 3.86601 2.29175 3.60768 2.29175H2.16602C1.82435 2.29175 1.54102 2.00841 1.54102 1.66675C1.54102 1.32508 1.82435 1.04175 2.16602 1.04175H3.61602C4.22435 1.04175 4.79934 1.30008 5.20768 1.74174C5.43268 1.99174 5.59935 2.28342 5.69101 2.60842H16.0994C16.941 2.60842 17.716 2.94175 18.2827 3.54175C18.841 4.15008 19.1244 4.94175 19.0577 5.78342L18.6077 12.0334C18.516 13.5584 17.1827 14.7917 15.6577 14.7917ZM5.73268 3.85008L5.08268 11.6834C5.04102 12.1667 5.19935 12.6251 5.52435 12.9834C5.84935 13.3417 6.29934 13.5334 6.78268 13.5334H15.6577C16.5244 13.5334 17.3077 12.8001 17.3743 11.9334L17.8243 5.68342C17.8577 5.19175 17.6994 4.72509 17.3743 4.38342C17.0493 4.03342 16.5993 3.84174 16.1077 3.84174H5.73268V3.85008Z" fill="#98A2B3"/>
    <path d="M14.0417 18.9583C13.125 18.9583 12.375 18.2083 12.375 17.2917C12.375 16.375 13.125 15.625 14.0417 15.625C14.9583 15.625 15.7083 16.375 15.7083 17.2917C15.7083 18.2083 14.9583 18.9583 14.0417 18.9583ZM14.0417 16.875C13.8083 16.875 13.625 17.0583 13.625 17.2917C13.625 17.525 13.8083 17.7083 14.0417 17.7083C14.275 17.7083 14.4583 17.525 14.4583 17.2917C14.4583 17.0583 14.275 16.875 14.0417 16.875Z" fill="#98A2B3"/>
    <path d="M7.37565 18.9583C6.45898 18.9583 5.70898 18.2083 5.70898 17.2917C5.70898 16.375 6.45898 15.625 7.37565 15.625C8.29232 15.625 9.04232 16.375 9.04232 17.2917C9.04232 18.2083 8.29232 18.9583 7.37565 18.9583ZM7.37565 16.875C7.14232 16.875 6.95898 17.0583 6.95898 17.2917C6.95898 17.525 7.14232 17.7083 7.37565 17.7083C7.60898 17.7083 7.79232 17.525 7.79232 17.2917C7.79232 17.0583 7.60898 16.875 7.37565 16.875Z" fill="#98A2B3"/>
    <path d="M18 7.29175H8C7.65833 7.29175 7.375 7.00841 7.375 6.66675C7.375 6.32508 7.65833 6.04175 8 6.04175H18C18.3417 6.04175 18.625 6.32508 18.625 6.66675C18.625 7.00841 18.3417 7.29175 18 7.29175Z" fill="#98A2B3"/>
</svg>
