<svg width="18" height="19" viewBox="0 0 18 19" fill="none"
    xmlns="http://www.w3.org/2000/svg">
    <mask id="mask0_400_1271" style="mask-type:luminance" maskUnits="userSpaceOnUse" x="0" y="0" width="18" height="19">
        <path fill-rule="evenodd" clip-rule="evenodd" d="M0.166016 0.833496H17.2492V18.7543H0.166016V0.833496Z" fill="white"/>
    </mask>
    <g mask="url(#mask0_400_1271)">
        <path fill-rule="evenodd" clip-rule="evenodd" d="M9.93018 12.7429C10.9335 12.7429 11.7502 13.5537 11.7502 14.5504V17.1137C11.7502 17.3279 11.9219 17.4995 12.1418 17.5045H13.7302C14.9818 17.5045 15.9993 16.4995 15.9993 15.2645V7.99454C15.9935 7.56954 15.791 7.16954 15.4435 6.9037L9.94935 2.52204C9.21185 1.93787 8.18018 1.93787 7.44018 2.5237L1.98352 6.90204C1.62268 7.1762 1.42018 7.5762 1.41602 8.0087V15.2645C1.41602 16.4995 2.43352 17.5045 3.68518 17.5045H5.28852C5.51435 17.5045 5.69768 17.3254 5.69768 17.1054C5.69768 17.057 5.70352 17.0087 5.71352 16.9629V14.5504C5.71352 13.5595 6.52518 12.7495 7.52102 12.7429H9.93018ZM13.7302 18.7545H12.1268C11.2085 18.7329 10.5002 18.012 10.5002 17.1137V14.5504C10.5002 14.2429 10.2443 13.9929 9.93018 13.9929H7.52518C7.21768 13.9945 6.96352 14.2454 6.96352 14.5504V17.1054C6.96352 17.1679 6.95518 17.2279 6.93768 17.2845C6.84768 18.1095 6.14268 18.7545 5.28852 18.7545H3.68518C1.74435 18.7545 0.166016 17.1887 0.166016 15.2645V8.00287C0.174349 7.17454 0.556016 6.4162 1.21518 5.91704L6.66102 1.5462C7.86018 0.596205 9.53102 0.596205 10.7277 1.54454L16.2127 5.91954C16.8568 6.41037 17.2385 7.16704 17.2493 7.98537V15.2645C17.2493 17.1887 15.671 18.7545 13.7302 18.7545Z" fill="#98A2B3"/>
    </g>
</svg>
