<svg width="21" height="20" viewBox="0 0 21 20" fill="none"
    xmlns="http://www.w3.org/2000/svg">
    <path d="M10.5088 5.06665C11.9841 5.06668 13.2055 6.19535 13.3525 7.63306L13.3672 7.92505C13.3589 9.47781 12.1524 10.7191 10.6211 10.7747H10.4619C8.84191 10.7186 7.65042 9.4631 7.65039 7.92505C7.65039 6.35119 8.93493 5.06665 10.5088 5.06665ZM10.5 5.30786C9.05622 5.30807 7.89181 6.48338 7.8916 7.91626C7.8916 9.3257 8.99527 10.4729 10.3984 10.5247L10.4893 10.5276L10.5137 10.5188C10.516 10.5189 10.5189 10.5196 10.5215 10.5198C10.5334 10.5204 10.5461 10.5215 10.5586 10.5227L10.5967 10.5266L10.6348 10.5247C11.9318 10.4569 12.9625 9.45355 13.0947 8.17896L13.1084 7.92017V7.91626C13.1082 6.48325 11.944 5.30786 10.5 5.30786Z" stroke="#98A2B3"/>
    <path d="M10.5 18.9583C8.25836 18.9583 6.11669 18.125 4.45836 16.6083C4.30836 16.475 4.24169 16.275 4.25836 16.0833C4.36669 15.0917 4.98336 14.1667 6.00836 13.4833C8.49169 11.8333 12.5167 11.8333 14.9917 13.4833C16.0167 14.175 16.6334 15.0917 16.7417 16.0833C16.7667 16.2833 16.6917 16.475 16.5417 16.6083C14.8834 18.125 12.7417 18.9583 10.5 18.9583ZM5.56669 15.9167C6.95003 17.075 8.69169 17.7083 10.5 17.7083C12.3084 17.7083 14.05 17.075 15.4334 15.9167C15.2834 15.4083 14.8834 14.9167 14.2917 14.5167C12.2417 13.15 8.76669 13.15 6.70003 14.5167C6.10836 14.9167 5.71669 15.4083 5.56669 15.9167Z" fill="#98A2B3"/>
    <path d="M10.4993 18.9584C5.55768 18.9584 1.54102 14.9417 1.54102 10.0001C1.54102 5.05841 5.55768 1.04175 10.4993 1.04175C15.441 1.04175 19.4577 5.05841 19.4577 10.0001C19.4577 14.9417 15.441 18.9584 10.4993 18.9584ZM10.4993 2.29175C6.24935 2.29175 2.79102 5.75008 2.79102 10.0001C2.79102 14.2501 6.24935 17.7084 10.4993 17.7084C14.7493 17.7084 18.2077 14.2501 18.2077 10.0001C18.2077 5.75008 14.7493 2.29175 10.4993 2.29175Z" fill="#98A2B3"/>
</svg>
