<svg width="21" height="20" viewBox="0 0 21 20" fill="none"
    xmlns="http://www.w3.org/2000/svg">
    <path d="M16.975 9.37484H13.6083C11.9333 9.37484 11.125 8.63317 11.125 7.09984V3.3165C11.125 1.78317 11.9417 1.0415 13.6083 1.0415H16.975C18.65 1.0415 19.4583 1.78317 19.4583 3.3165V7.0915C19.4583 8.63317 18.6417 9.37484 16.975 9.37484ZM13.6083 2.2915C12.4917 2.2915 12.375 2.60817 12.375 3.3165V7.0915C12.375 7.80817 12.4917 8.1165 13.6083 8.1165H16.975C18.0917 8.1165 18.2083 7.79984 18.2083 7.0915V3.3165C18.2083 2.59984 18.0917 2.2915 16.975 2.2915H13.6083Z" fill="#1B6013"/>
    <path d="M16.975 18.9583H13.6083C11.9333 18.9583 11.125 18.1417 11.125 16.475V13.1083C11.125 11.4333 11.9417 10.625 13.6083 10.625H16.975C18.65 10.625 19.4583 11.4417 19.4583 13.1083V16.475C19.4583 18.1417 18.6417 18.9583 16.975 18.9583ZM13.6083 11.875C12.625 11.875 12.375 12.125 12.375 13.1083V16.475C12.375 17.4583 12.625 17.7083 13.6083 17.7083H16.975C17.9583 17.7083 18.2083 17.4583 18.2083 16.475V13.1083C18.2083 12.125 17.9583 11.875 16.975 11.875H13.6083Z" fill="#1B6013"/>
    <path d="M7.39102 9.37484H4.02435C2.34935 9.37484 1.54102 8.63317 1.54102 7.09984V3.3165C1.54102 1.78317 2.35768 1.0415 4.02435 1.0415H7.39102C9.06602 1.0415 9.87435 1.78317 9.87435 3.3165V7.0915C9.87435 8.63317 9.05768 9.37484 7.39102 9.37484ZM4.02435 2.2915C2.90768 2.2915 2.79102 2.60817 2.79102 3.3165V7.0915C2.79102 7.80817 2.90768 8.1165 4.02435 8.1165H7.39102C8.50768 8.1165 8.62435 7.79984 8.62435 7.0915V3.3165C8.62435 2.59984 8.50768 2.2915 7.39102 2.2915H4.02435Z" fill="#1B6013"/>
    <path d="M7.39102 18.9583H4.02435C2.34935 18.9583 1.54102 18.1417 1.54102 16.475V13.1083C1.54102 11.4333 2.35768 10.625 4.02435 10.625H7.39102C9.06602 10.625 9.87435 11.4417 9.87435 13.1083V16.475C9.87435 18.1417 9.05768 18.9583 7.39102 18.9583ZM4.02435 11.875C3.04102 11.875 2.79102 12.125 2.79102 13.1083V16.475C2.79102 17.4583 3.04102 17.7083 4.02435 17.7083H7.39102C8.37435 17.7083 8.62435 17.4583 8.62435 16.475V13.1083C8.62435 12.125 8.37435 11.875 7.39102 11.875H4.02435Z" fill="#1B6013"/>
</svg>
