<svg width="18" height="19" viewBox="0 0 18 19" fill="none"
    xmlns="http://www.w3.org/2000/svg">
    <mask id="mask0_400_177" style="mask-type:luminance" maskUnits="userSpaceOnUse" x="0" y="0" width="18" height="19">
        <path fill-rule="evenodd" clip-rule="evenodd" d="M0.666016 0.833496H17.7492V18.7543H0.666016V0.833496Z" fill="white"/>
    </mask>
    <g mask="url(#mask0_400_177)">
        <path fill-rule="evenodd" clip-rule="evenodd" d="M10.4302 12.7426C11.4335 12.7426 12.2502 13.5535 12.2502 14.5501V17.1135C12.2502 17.3276 12.4219 17.4993 12.6418 17.5043H14.2302C15.4818 17.5043 16.4993 16.4993 16.4993 15.2643V7.99429C16.4935 7.56929 16.291 7.16929 15.9435 6.90346L10.4493 2.52179C9.71185 1.93763 8.68018 1.93763 7.94018 2.52346L2.48352 6.90179C2.12268 7.17596 1.92018 7.57596 1.91602 8.00846V15.2643C1.91602 16.4993 2.93352 17.5043 4.18518 17.5043H5.78852C6.01435 17.5043 6.19768 17.3251 6.19768 17.1051C6.19768 17.0568 6.20352 17.0085 6.21352 16.9626V14.5501C6.21352 13.5593 7.02518 12.7493 8.02102 12.7426H10.4302ZM14.2302 18.7543H12.6268C11.7085 18.7326 11.0002 18.0118 11.0002 17.1135V14.5501C11.0002 14.2426 10.7443 13.9926 10.4302 13.9926H8.02518C7.71768 13.9943 7.46352 14.2451 7.46352 14.5501V17.1051C7.46352 17.1676 7.45518 17.2276 7.43768 17.2843C7.34768 18.1093 6.64268 18.7543 5.78852 18.7543H4.18518C2.24435 18.7543 0.666016 17.1885 0.666016 15.2643V8.00263C0.674349 7.17429 1.05602 6.41596 1.71518 5.91679L7.16102 1.54596C8.36018 0.59596 10.031 0.59596 11.2277 1.54429L16.7127 5.91929C17.3568 6.41013 17.7385 7.16679 17.7493 7.98513V15.2643C17.7493 17.1885 16.171 18.7543 14.2302 18.7543Z" fill="#1B6013"/>
    </g>
</svg>
