<svg width="21" height="20" viewBox="0 0 21 20" fill="none"
    xmlns="http://www.w3.org/2000/svg">
    <path d="M14.25 7.19159C13.9083 7.19159 13.625 6.90826 13.625 6.56659V5.41659C13.625 4.54159 13.25 3.69159 12.6 3.09992C11.9417 2.49992 11.0917 2.22492 10.1917 2.30826C8.69167 2.44992 7.375 3.98326 7.375 5.58326V6.39159C7.375 6.73326 7.09167 7.01659 6.75 7.01659C6.40833 7.01659 6.125 6.73326 6.125 6.39159V5.57492C6.125 3.33326 7.93333 1.26659 10.075 1.05826C11.325 0.94159 12.525 1.33326 13.4417 2.17492C14.35 2.99992 14.875 4.18326 14.875 5.41659V6.56659C14.875 6.90826 14.5917 7.19159 14.25 7.19159Z" fill="#98A2B3"/>
    <path d="M12.9998 18.9584H7.99985C4.14985 18.9584 3.43318 17.1667 3.24985 15.4251L2.62485 10.4334C2.53318 9.53342 2.49985 8.24175 3.37485 7.27508C4.12485 6.44175 5.36652 6.04175 7.16652 6.04175H13.8332C15.6415 6.04175 16.8832 6.45008 17.6248 7.27508C18.4915 8.24175 18.4665 9.53342 18.3748 10.4167L17.7498 15.4251C17.5665 17.1667 16.8498 18.9584 12.9998 18.9584ZM7.16652 7.29175C5.75818 7.29175 4.79152 7.56675 4.29985 8.11675C3.89152 8.56675 3.75818 9.25842 3.86652 10.2917L4.49152 15.2834C4.63318 16.6167 4.99985 17.7167 7.99985 17.7167H12.9998C15.9998 17.7167 16.3665 16.6251 16.5082 15.3001L17.1332 10.2917C17.2415 9.27508 17.1082 8.58342 16.6998 8.12508C16.2082 7.56675 15.2415 7.29175 13.8332 7.29175H7.16652Z" fill="#98A2B3"/>
    <path d="M13.3495 10.9584C12.8828 10.9584 12.5078 10.5834 12.5078 10.1251C12.5078 9.66675 12.8828 9.29175 13.3411 9.29175C13.7995 9.29175 14.1745 9.66675 14.1745 10.1251C14.1745 10.5834 13.8078 10.9584 13.3495 10.9584Z" fill="#98A2B3"/>
    <path d="M7.51745 10.9584C7.05078 10.9584 6.67578 10.5834 6.67578 10.1251C6.67578 9.66675 7.05078 9.29175 7.50911 9.29175C7.96745 9.29175 8.34245 9.66675 8.34245 10.1251C8.34245 10.5834 7.97578 10.9584 7.51745 10.9584Z" fill="#98A2B3"/>
</svg>
