<svg width="20" height="20" viewBox="0 0 20 20" fill="none" xmlns="http://www.w3.org/2000/svg">
<path fill-rule="evenodd" clip-rule="evenodd" d="M4.99967 3.5415C3.73402 3.5415 2.70801 4.56752 2.70801 5.83317C2.70801 7.09882 3.73402 8.12484 4.99967 8.12484C6.26533 8.12484 7.29134 7.09882 7.29134 5.83317C7.29134 4.56752 6.26533 3.5415 4.99967 3.5415ZM3.95801 5.83317C3.95801 5.25787 4.42438 4.7915 4.99967 4.7915C5.57497 4.7915 6.04134 5.25787 6.04134 5.83317C6.04134 6.40847 5.57497 6.87484 4.99967 6.87484C4.42438 6.87484 3.95801 6.40847 3.95801 5.83317Z" fill="#2D264B"/>
<path d="M9.99967 5.20817C9.6545 5.20817 9.37467 5.48799 9.37467 5.83317C9.37467 6.17835 9.6545 6.45817 9.99967 6.45817L16.6663 6.45817C17.0115 6.45817 17.2913 6.17835 17.2913 5.83317C17.2913 5.48799 17.0115 5.20817 16.6663 5.20817L9.99967 5.20817Z" fill="#2D264B"/>
<path fill-rule="evenodd" clip-rule="evenodd" d="M14.9997 11.8748C13.734 11.8748 12.708 12.9009 12.708 14.1665C12.708 15.4322 13.734 16.4582 14.9997 16.4582C16.2653 16.4582 17.2913 15.4322 17.2913 14.1665C17.2913 12.9009 16.2653 11.8748 14.9997 11.8748ZM13.958 14.1665C13.958 13.5912 14.4244 13.1248 14.9997 13.1248C15.575 13.1248 16.0413 13.5912 16.0413 14.1665C16.0413 14.7418 15.575 15.2082 14.9997 15.2082C14.4244 15.2082 13.958 14.7418 13.958 14.1665Z" fill="#2D264B"/>
<path d="M3.33301 13.5415C2.98783 13.5415 2.70801 13.8213 2.70801 14.1665C2.70801 14.5117 2.98783 14.7915 3.33301 14.7915L9.99967 14.7915C10.3449 14.7915 10.6247 14.5117 10.6247 14.1665C10.6247 13.8213 10.3449 13.5415 9.99967 13.5415H3.33301Z" fill="#2D264B"/>
</svg>
