<svg width="12" height="14" viewBox="0 0 12 14" fill="none" xmlns="http://www.w3.org/2000/svg">
<path fill-rule="evenodd" clip-rule="evenodd" d="M0.430664 5.87867C0.430664 2.81209 2.99325 0.333496 6.09296 0.333496C9.20141 0.333496 11.764 2.81209 11.764 5.87867C11.764 7.42396 11.202 8.85858 10.277 10.0745C9.25653 11.4158 7.99877 12.5845 6.58303 13.5018C6.25901 13.7138 5.96658 13.7298 5.61096 13.5018C4.18715 12.5845 2.92939 11.4158 1.91766 10.0745C0.991986 8.85858 0.430664 7.42396 0.430664 5.87867ZM4.22682 6.05133C4.22682 7.07863 5.0651 7.88661 6.09296 7.88661C7.12149 7.88661 7.96784 7.07863 7.96784 6.05133C7.96784 5.03203 7.12149 4.18472 6.09296 4.18472C5.0651 4.18472 4.22682 5.03203 4.22682 6.05133Z" fill="white"/>
</svg>
