<svg xmlns="http://www.w3.org/2000/svg" xml:space="preserve" width="2048" height="2048" style="shape-rendering:geometricPrecision;text-rendering:geometricPrecision;image-rendering:optimizeQuality;fill-rule:evenodd;clip-rule:evenodd"><defs><style>.fil0,.fil1{fill:#212121;fill-rule:nonzero}.fil1{fill:#66bb6a}</style></defs><g id="Layer_x0020_1"><path class="fil0" d="M1346.82 382.948c-13.254 0-24 10.746-24 24s10.746 24 24 24h194.114v1313.05H507.074V430.948H701.19c13.254 0 24-10.746 24-24s-10.746-24-24-24H483.074c-13.254 0-24 10.746-24 24v1361.05c0 13.254 10.746 24 24 24h1081.86c13.254 0 24-10.746 24-24V406.948c0-13.254-10.746-24-24-24H1346.82z"/><path class="fil0" d="M689.597 551.999h668.808l-73.097-248.001H762.695l-73.098 248.001zm700.841 48H658.056a24.006 24.006 0 0 1-7.277-.98c-12.713-3.746-19.982-17.092-16.235-29.805l.058.016 86.753-294.333c2.338-10.805 11.951-18.899 23.455-18.899h557.94c10.54-.2 20.339 6.614 23.463 17.215l-23.02 6.785 22.968-6.75 86.743 294.296c.99 2.63 1.534 5.48 1.534 8.456 0 13.254-10.746 24-24 24z"/><path class="fil0" d="M1371.45 487.589c-13.254 0-24 10.746-24 24s10.746 24 24 24h64.782v1103.72H611.764V535.589h64.783c13.254 0 24-10.746 24-24s-10.746-24-24-24h-88.783c-13.254 0-24 10.746-24 24v1151.72c0 13.254 10.746 24 24 24h872.468c13.254 0 24-10.746 24-24V511.589c0-13.254-10.746-24-24-24h-88.782z"/><path class="fil1" d="M684.602 691.713h128.001c13.254 0 24 10.746 24 24v128.001c0 13.254-10.746 24-24 24H684.602c-13.254 0-24-10.746-24-24V715.713c0-13.254 10.746-24 24-24zm104.001 48h-80v80h80v-80zM883.398 819.712H1363.4v48H883.398zM684.602 999.446h128.001c13.254 0 24 10.746 24 24v128.001c0 13.254-10.746 24-24 24H684.602c-13.254 0-24-10.746-24-24v-128.001c0-13.254 10.746-24 24-24zm104.001 48h-80v80h80v-80zM883.398 1127.44H1363.4v48H883.398zM684.602 1307.18h128.001c13.254 0 24 10.746 24 24v128.001c0 13.254-10.746 24-24 24H684.602c-13.254 0-24-10.746-24-24V1331.18c0-13.254 10.746-24 24-24zm104.001 48h-80v80h80v-80zM883.398 1435.18H1363.4v48H883.398z"/></g><path style="fill:none" d="M0 0h2048v2048H0z"/></svg>