<svg width="21" height="20" viewBox="0 0 21 20" fill="none" xmlns="http://www.w3.org/2000/svg">
<g clip-path="url(#clip0_2005_35142)">
<path fill-rule="evenodd" clip-rule="evenodd" d="M9.93164 0.208496C5.44433 0.208496 1.80664 3.84618 1.80664 8.3335C1.80664 12.8208 5.44433 16.4585 9.93164 16.4585C14.419 16.4585 18.0566 12.8208 18.0566 8.3335C18.0566 3.84618 14.419 0.208496 9.93164 0.208496ZM3.05664 8.3335C3.05664 4.53654 6.13468 1.4585 9.93164 1.4585C13.7286 1.4585 16.8066 4.53654 16.8066 8.3335C16.8066 12.1305 13.7286 15.2085 9.93164 15.2085C6.13468 15.2085 3.05664 12.1305 3.05664 8.3335Z" fill="#2D264B"/>
<path d="M17.0403 14.5583C16.7962 14.3142 16.4005 14.3142 16.1564 14.5583C15.9123 14.8024 15.9123 15.1981 16.1564 15.4422L19.4897 18.7755C19.7337 19.0195 20.1295 19.0196 20.3735 18.7755C20.6176 18.5314 20.6176 18.1357 20.3736 17.8916L17.0403 14.5583Z" fill="#2D264B"/>
</g>
<defs>
<clipPath id="clip0_2005_35142">
<rect width="20" height="20" fill="white" transform="translate(0.764648)"/>
</clipPath>
</defs>
</svg>
